<svg width="80" height="121" viewBox="0 0 80 121" fill="none" xmlns="http://www.w3.org/2000/svg">
<g clip-path="url(#clip0_2513_9)">
<path d="M17.4999 0C20.7856 1.23828 24.0035 1.79698 26.9012 3.48213C32.8233 6.9261 36.991 15.9188 35.1415 21.7897C34.7081 23.1655 34.3837 23.9846 32.5654 23.9531C24.5252 23.8138 16.7684 17.7464 15.5083 8.78405C15.1203 6.02461 14.3301 3.34481 15.5552 0.31423C16.1111 -2.22469e-08 16.6666 0 17.4999 0Z" fill="#173936"/>
<path d="M39.5767 120.93C32.821 117.72 30.227 112.758 32.2335 107.489C33.8927 103.133 38.4385 100.122 42.3125 100.815C47.2502 101.697 50.8485 105.223 51.1103 109.435C51.4843 115.451 49.2178 118.896 43.795 120.672C42.4338 120.93 41.1639 120.93 39.5767 120.93Z" fill="#763742"/>
<path d="M0 50.3254C2.85204 46.2034 6.76815 44.9671 9.34042 47.1349C11.2171 48.7164 12.4958 50.7647 11.6728 53.2425C11.0365 55.158 9.97668 57.1333 7.59327 57.454C4.48507 57.8722 1.73801 57.3941 0.252678 53.8326C-4.41516e-08 52.71 0 51.6733 0 50.3254Z" fill="#763742"/>
<path d="M79.9999 46.7019C78.9104 48.0421 78.01 49.3197 76.2578 49.2809C74.4432 49.2408 72.1778 49.7064 71.4722 47.6088C70.8099 45.6402 70.3101 43.216 71.9863 41.3668C73.4478 39.7544 75.3565 39.6401 77.4381 40.2585C78.35 40.5294 78.8577 41.1124 79.7429 41.7277C79.9999 43.3271 79.9999 44.8512 79.9999 46.7019Z" fill="#763742"/>
<path d="M49.8216 59.1564C45.4557 64.4349 35.8035 63.6741 31.9812 59.4052C26.9995 53.8414 27.2454 46.3551 32.1687 41.1925C36.3532 36.8046 45.0316 36.9099 49.2874 41.0945C54.5587 46.2777 54.862 53.6732 49.8216 59.1564Z" fill="#4F3230"/>
<path d="M26.6666 77.5525C26.6829 70.6369 30.3734 66.4983 36.2881 66.437C43.5718 66.3615 47.882 69.8783 48.1478 76.1135C48.4181 82.4532 44.1409 87.8223 38.6113 88.0847C31.664 88.4144 27.1493 84.5567 26.6666 77.5525Z" fill="#763742"/>
<path d="M47.4276 90.1153C48.3457 81.1969 55.3228 77.2344 62.27 81.3727C65.2952 83.1746 67.3074 87.6708 66.4771 90.7731C65.1341 95.7916 62.1022 98.4938 57.7674 98.5358C51.8442 98.5932 50.167 97.2746 47.4276 90.1153Z" fill="#763742"/>
<path d="M75.5544 61.6094C73.9462 67.0542 71.6643 68.702 66.211 68.6764C61.9802 68.6566 58.6789 66.1399 57.406 61.9641C56.3419 58.4731 57.8499 53.9557 60.7844 51.8432C64.2734 49.3316 69.4138 49.3268 72.6328 51.9549C75.6121 54.3873 75.8537 57.7717 75.5544 61.6094Z" fill="#763742"/>
<path d="M38.7065 26.4031C42.5083 16.7051 47.713 8.39946 55.9104 2.25589C56.5798 1.75417 57.2732 0.766247 57.7494 2.29057C58.1874 3.69232 60.3552 4.84965 58.2384 6.69114C54.6324 9.82817 52.0123 13.8105 49.3695 17.7574C46.4174 22.1663 43.6785 26.6867 42.061 31.7969C41.3949 33.9011 39.9003 35.0283 37.9163 34.2205C36.1698 33.5094 37.0795 31.8082 37.4917 30.4572C37.8749 29.2013 38.1969 27.9264 38.7065 26.4031Z" fill="#173936"/>
<path d="M66.2735 41.0465C63.344 45.7491 59.1547 45.5367 55.7396 44.0363C51.9602 42.3759 50.9402 38.6407 52.5878 34.0925C53.7269 30.9478 56.8836 29.3394 60.8866 29.864C63.718 30.2352 66.4794 33.1075 66.6394 36.0271C66.7267 37.6212 66.5525 39.2299 66.2735 41.0465Z" fill="#763742"/>
<path d="M23.8707 35.5658C28.0652 37.8378 26.9673 41.5929 26.3205 44.5488C25.617 47.7642 22.6556 49.4508 19.3436 49.1908C16.0668 48.9336 13.5652 47.3968 12.5165 43.7665C11.5448 40.4026 12.371 37.552 14.8089 35.6608C17.3997 33.6511 20.6304 33.5384 23.8707 35.5658Z" fill="#763742"/>
<path d="M25.4471 65.8598C22.4813 68.8613 19.1363 69.4776 15.9355 68.0733C12.893 66.7385 11.8705 63.831 12.0699 61.265C12.3309 57.906 14.0902 54.7163 18.0131 53.9982C20.9385 53.4626 23.7411 54.4139 25.3956 56.7457C27.2897 59.4153 27.4633 62.6117 25.4471 65.8598Z" fill="#763742"/>
<path d="M33.2576 92.3948C33.322 93.6868 33.3418 94.6749 33.3308 95.6627C33.2872 99.5644 31.3964 101.929 28.064 102.266C23.1579 102.761 20.5805 100.895 19.4678 96.0414C18.9324 93.7062 21.2783 89.9844 23.8571 88.8324C28.0196 86.9731 30.7034 89.2086 33.2576 92.3948Z" fill="#763742"/>
<path d="M18.2469 82.661C15.2419 84.5048 12.7671 83.4329 11.4628 81.1208C10.4866 79.3901 10.4768 76.779 12.8432 75.379C15.27 73.9432 17.4906 74.2175 19.2621 76.5527C20.9434 78.7689 19.7608 80.6485 18.2469 82.661Z" fill="#4F3230"/>
<path d="M41.6324 91.0916C45.102 91.0005 46.8128 92.5456 46.6304 95.7503C46.4453 99.0031 44.2845 99.6207 41.4954 99.3012C39.7979 99.1067 38.761 98.2552 38.5506 96.6024C38.2427 94.1837 38.3131 91.862 41.6324 91.0916Z" fill="#4F3230"/>
<path d="M54.8798 67.9332C58.0165 67.9154 58.5844 69.6856 58.541 72.0873C58.5114 73.7194 57.9792 74.7836 56.227 74.6201C54.6771 74.4754 52.4397 75.5467 51.9508 73.0587C51.5195 70.8633 51.5501 68.5164 54.8798 67.9332Z" fill="#763742"/>
</g>
<defs>
<clipPath id="clip0_2513_9">
<rect width="80" height="120.93" fill="white"/>
</clipPath>
</defs>
</svg>
